<?xml version="1.0" encoding="iso-8859-1"?>
<!-- Generator: Adobe Illustrator 18.1.1, SVG Export Plug-In . SVG Version: 6.00 Build 0)  -->
<svg xmlns="http://www.w3.org/2000/svg" xmlns:xlink="http://www.w3.org/1999/xlink" version="1.1" id="Capa_1" x="0px" y="0px" viewBox="0 0 190.989 190.989" style="enable-background:new 0 0 190.989 190.989;" xml:space="preserve" width="512px" height="512px">
<g>
	<g>
		<path d="M21.677,0C11.137,0,2.559,8.579,2.559,19.125s8.575,19.122,19.118,19.122    s19.122-8.575,19.122-19.122S32.22,0,21.677,0z M21.677,32.51c-7.383,0-13.388-6.005-13.388-13.385    c0-7.383,6.005-13.396,13.388-13.396c7.387,0,13.392,6.012,13.392,13.396C35.069,26.509,29.064,32.51,21.677,32.51z" fill="#007aff"/>
		<path d="M21.677,75.614c-10.54,0-19.118,8.575-19.118,19.122c0,10.536,8.575,19.111,19.118,19.111    s19.122-8.575,19.122-19.111C40.799,84.192,32.22,75.614,21.677,75.614z M21.677,108.114c-7.383,0-13.388-6.002-13.388-13.378    c0-7.383,6.005-13.385,13.388-13.385c7.387,0,13.392,6.005,13.392,13.385C35.069,102.115,29.064,108.114,21.677,108.114z" fill="#007aff"/>
		<path d="M21.677,152.745c-10.54,0-19.118,8.575-19.118,19.122c0,10.547,8.575,19.122,19.118,19.122    s19.122-8.575,19.122-19.122C40.799,161.32,32.22,152.745,21.677,152.745z M21.677,185.256c-7.383,0-13.388-6.012-13.388-13.388    c0-7.383,6.005-13.392,13.388-13.392c7.387,0,13.392,6.012,13.392,13.392C35.069,179.243,29.064,185.256,21.677,185.256z" fill="#007aff"/>
		<rect x="73.145" y="15.922" width="115.286" height="6.406" fill="#007aff"/>
		<rect x="73.145" y="94.557" width="115.286" height="6.406" fill="#007aff"/>
		<rect x="73.145" y="167.54" width="115.286" height="6.403" fill="#007aff"/>
	</g>
</g>
<g>
</g>
<g>
</g>
<g>
</g>
<g>
</g>
<g>
</g>
<g>
</g>
<g>
</g>
<g>
</g>
<g>
</g>
<g>
</g>
<g>
</g>
<g>
</g>
<g>
</g>
<g>
</g>
<g>
</g>
</svg>
