<?xml version="1.0" encoding="iso-8859-1"?>
<!-- Generator: Adobe Illustrator 18.1.1, SVG Export Plug-In . SVG Version: 6.00 Build 0)  -->
<svg xmlns="http://www.w3.org/2000/svg" xmlns:xlink="http://www.w3.org/1999/xlink" version="1.1" id="Capa_1" x="0px" y="0px" viewBox="0 0 196.894 196.894" style="enable-background:new 0 0 196.894 196.894;" xml:space="preserve" width="512px" height="512px">
<g>
	<g>
		<path d="M26.008,72.443C11.667,72.443,0,84.11,0,98.447c0,14.34,11.667,26.004,26.008,26.004    c14.337,0,26.004-11.663,26.004-26.004C52.011,84.11,40.344,72.443,26.008,72.443z M26.008,117.365    c-10.429,0-18.918-8.489-18.918-18.918c0-10.425,8.489-18.911,18.918-18.911c10.425,0,18.911,8.485,18.911,18.911    C44.915,108.876,36.433,117.365,26.008,117.365z" fill="#007aff"/>
		<path d="M99.721,72.443c-14.34,0-26.008,11.667-26.008,26.004c0,14.34,11.667,26.004,26.008,26.004    s26.008-11.663,26.008-26.004C125.729,84.11,114.062,72.443,99.721,72.443z M99.721,117.365c-10.425,0-18.911-8.489-18.911-18.918    c0-10.425,8.489-18.911,18.911-18.911c10.429,0,18.914,8.485,18.914,18.911C118.635,108.876,110.15,117.365,99.721,117.365z" fill="#007aff"/>
		<path d="M170.89,72.443c-14.344,0-26.011,11.667-26.011,26.004c0,14.34,11.667,26.004,26.011,26.004    c14.337,0,26.004-11.663,26.004-26.004C196.894,84.11,185.227,72.443,170.89,72.443z M170.89,117.365    c-10.429,0-18.914-8.489-18.914-18.918c0-10.425,8.485-18.911,18.914-18.911c10.429,0,18.907,8.485,18.907,18.911    C189.797,108.876,181.319,117.365,170.89,117.365z" fill="#007aff"/>
	</g>
</g>
<g>
</g>
<g>
</g>
<g>
</g>
<g>
</g>
<g>
</g>
<g>
</g>
<g>
</g>
<g>
</g>
<g>
</g>
<g>
</g>
<g>
</g>
<g>
</g>
<g>
</g>
<g>
</g>
<g>
</g>
</svg>
