<?xml version="1.0" encoding="iso-8859-1"?>
<!-- Generator: Adobe Illustrator 18.1.1, SVG Export Plug-In . SVG Version: 6.00 Build 0)  -->
<svg xmlns="http://www.w3.org/2000/svg" xmlns:xlink="http://www.w3.org/1999/xlink" version="1.1" id="Capa_1" x="0px" y="0px" viewBox="0 0 177.783 177.783" style="enable-background:new 0 0 177.783 177.783;" xml:space="preserve" width="512px" height="512px">
<g>
	<g>
		<g>
			<g>
				<path d="M57.059,114.115c-15.242,0-29.572-5.937-40.348-16.71C5.938,86.626,0.001,72.3,0.001,57.054      c0-15.242,5.937-29.572,16.71-40.344C27.486,5.934,41.816,0,57.066,0c15.239,0,29.561,5.934,40.341,16.71      c10.772,10.779,16.71,25.106,16.71,40.344s-5.937,29.565-16.71,40.341C86.627,108.178,72.294,114.115,57.059,114.115z       M57.066,10.418c-12.469,0-24.175,4.853-32.983,13.66c-8.804,8.808-13.66,20.521-13.66,32.979s4.857,24.168,13.66,32.976      c8.808,8.811,20.514,13.664,32.976,13.664c12.454,0,24.172-4.849,32.979-13.664c8.811-8.811,13.657-20.518,13.657-32.976      s-4.846-24.172-13.657-32.979C81.23,15.271,69.52,10.418,57.066,10.418z" fill="#007aff"/>
			</g>
		</g>
		<g>
			<g>
				<path d="M172.573,177.783c-1.335,0-2.666-0.508-3.679-1.528L90.038,97.398      c-2.033-2.033-2.033-5.332,0-7.365c2.04-2.036,5.336-2.036,7.372,0l78.853,78.856c2.026,2.033,2.026,5.332,0,7.369      C175.239,177.275,173.904,177.783,172.573,177.783z" fill="#007aff"/>
			</g>
		</g>
	</g>
</g>
<g>
</g>
<g>
</g>
<g>
</g>
<g>
</g>
<g>
</g>
<g>
</g>
<g>
</g>
<g>
</g>
<g>
</g>
<g>
</g>
<g>
</g>
<g>
</g>
<g>
</g>
<g>
</g>
<g>
</g>
</svg>
