<?xml version="1.0" encoding="iso-8859-1"?>
<!-- Generator: Adobe Illustrator 18.1.1, SVG Export Plug-In . SVG Version: 6.00 Build 0)  -->
<svg xmlns="http://www.w3.org/2000/svg" xmlns:xlink="http://www.w3.org/1999/xlink" version="1.1" id="Capa_1" x="0px" y="0px" viewBox="0 0 201.618 201.618" style="enable-background:new 0 0 201.618 201.618;" xml:space="preserve" width="512px" height="512px">
<g>
	<g>
		<g>
			<g>
				<path d="M104.635,176.513c-1.41,0-2.72-0.376-3.829-1.041c-1.099,0.666-2.416,1.041-3.829,1.041      c-0.49,0-0.988-0.111-1.442-0.336l-9.162-4.542H7.083c-3.901,0-7.083-2.949-7.083-6.578V31.691c0-3.636,3.182-6.585,7.083-6.585      h79.511c4.373,0,10.715,1.689,14.434,7.05c4.23-5.361,11.434-7.05,16.359-7.05h77.16c3.901,0,7.072,2.949,7.072,6.585V165.06      c0,3.629-3.171,6.578-7.072,6.578h-78.005l-10.604,4.606C105.526,176.43,105.086,176.513,104.635,176.513z M100.827,166.621      c1.793,0,3.235,1.514,3.235,3.314c0-0.032,0.032-0.032,0.104-0.011l10.404-4.52c0.397-0.175,0.848-0.265,1.288-0.265h78.681      c0.376,0,0.576-0.172,0.608-0.215l-0.036-133.233c0,0.082-0.19-0.079-0.565-0.079h-77.053c-0.594-0.064-4.162,0.047-7.53,1.646      c-3.976,1.882-5.898,5.089-5.898,9.81c0,1.793-1.457,3.25-3.257,3.25c-1.789,0-3.25-1.453-3.25-3.25      c0-10.908-9.062-11.456-10.883-11.456H7.083c-0.379,0-0.576,0.165-0.605,0.208l0.029,133.23c0-0.079,0.2,0.082,0.576,0.086      h80.055c0.501,0,0.998,0.111,1.442,0.336l8.911,4.413c0.025-0.018,0.054-0.039,0.068-0.061c0.014-0.24,0.047-0.48,0.1-0.709      C97.975,167.666,99.263,166.621,100.827,166.621z" fill="#007aff"/>
			</g>
		</g>
		<g>
			<g>
				<rect x="97.559" y="36.093" width="6.503" height="138.255" fill="#007aff"/>
			</g>
		</g>
	</g>
</g>
<g>
</g>
<g>
</g>
<g>
</g>
<g>
</g>
<g>
</g>
<g>
</g>
<g>
</g>
<g>
</g>
<g>
</g>
<g>
</g>
<g>
</g>
<g>
</g>
<g>
</g>
<g>
</g>
<g>
</g>
</svg>
